# 3ds Max Wavefront OBJ Exporter v0.97b - (c)2007 guruware
# File Created: 29.03.2018 20:30:27

mtllib vault_round_table.mtl

#
# object vault_round_table
#

v  -0.8573 0.0681 21.4246
v  0.7045 0.0681 21.4246
v  -0.0764 1.3597 21.4246
v  0.7045 0.0681 -21.0163
v  -0.8573 0.0681 -21.0163
v  -0.0764 1.3597 -21.0163
v  21.1441 0.0681 0.9851
v  21.1441 0.0681 -0.5768
v  21.1441 1.3597 0.2042
v  -21.2968 0.0681 -0.5767
v  -21.2968 0.0681 0.9851
v  -21.2968 1.3597 0.2042
v  -1.5816 0.0681 1.6243
v  1.4288 0.0681 1.6243
v  -0.0764 1.3597 1.6243
v  -0.1019 1.3597 21.3621
v  -0.1019 1.3597 2.3183
v  -0.1019 4.7111 21.3621
v  -0.1019 9.4795 2.3183
v  1.4288 0.0681 -1.2160
v  -1.5816 0.0681 -1.2160
v  -0.0764 1.3597 -1.2160
v  -0.0508 1.3597 -20.9537
v  -0.0508 1.3597 -1.9100
v  -0.0508 4.7111 -20.9537
v  -0.0508 9.4795 -1.9100
v  1.3438 0.0681 1.7094
v  1.3438 0.0681 -1.3010
v  1.3438 1.3597 0.2042
v  21.0815 1.3597 0.2297
v  2.0378 1.3597 0.2297
v  21.0815 4.7111 0.2297
v  2.0378 9.4795 0.2297
v  -1.4966 0.0681 -1.3010
v  -1.4966 0.0681 1.7094
v  -1.4966 1.3597 0.2042
v  -21.2343 1.3597 0.1786
v  -2.1905 1.3597 0.1786
v  -21.2343 4.7111 0.1786
v  -2.1905 9.4795 0.1786
v  30.6565 55.1419 8.2144
v  -22.4421 55.1419 22.4421
v  8.2144 55.1419 30.6565
v  0.0000 55.1419 31.7380
v  -8.2144 55.1419 30.6565
v  -15.8690 55.1419 27.4859
v  15.8690 55.1419 27.4859
v  22.4421 55.1419 22.4421
v  27.4859 55.1419 15.8690
v  -30.6565 55.1419 -8.2144
v  -8.2144 55.1419 -30.6565
v  22.4421 55.1419 -22.4421
v  27.4859 55.1419 -15.8690
v  30.6565 55.1419 -8.2144
v  31.7380 55.1419 -0.0000
v  0.0000 55.1419 -31.7380
v  8.2144 55.1419 -30.6565
v  15.8690 55.1419 -27.4859
v  -27.4859 55.1419 -15.8690
v  -22.4421 55.1419 -22.4421
v  -15.8690 55.1419 -27.4859
v  -27.4859 55.1419 15.8690
v  -30.6565 55.1419 8.2144
v  -31.7380 55.1419 -0.0000
v  -0.4680 -0.0628 2.3284
v  -1.7738 -0.0628 1.6341
v  0.9965 -0.0628 2.1226
v  0.3630 -0.0628 -2.3846
v  2.0603 -0.0628 1.0953
v  2.3171 -0.0628 -0.3611
v  1.6688 -0.0628 -1.6903
v  -1.1015 -0.0628 -2.1788
v  -2.1653 -0.0628 -1.1515
v  -2.4221 -0.0628 0.3049
v  -2.1653 34.4169 -1.1515
v  -2.1653 53.0928 -1.1515
v  -1.1015 34.4169 -2.1788
v  -1.1015 53.0928 -2.1788
v  0.3630 34.4169 -2.3846
v  0.3630 53.0928 -2.3846
v  -2.4221 34.4169 0.3049
v  -1.7738 34.4169 1.6341
v  -0.4680 34.4169 2.3284
v  0.9965 34.4169 2.1226
v  2.0603 34.4169 1.0953
v  2.3171 34.4169 -0.3611
v  1.6688 34.4169 -1.6903
v  -2.4221 53.0928 0.3049
v  -1.7738 53.0928 1.6341
v  -0.4680 53.0928 2.3284
v  0.9965 53.0928 2.1226
v  2.0603 53.0928 1.0953
v  2.3171 53.0928 -0.3611
v  1.6688 53.0928 -1.6903
v  23.2409 55.1419 -23.2409
v  23.2409 53.0928 -23.2409
v  16.4338 55.1419 -28.4642
v  16.4338 53.0928 -28.4642
v  8.5068 55.1419 -31.7477
v  8.5068 53.0928 -31.7477
v  0.0000 55.1419 -32.8676
v  0.0000 53.0928 -32.8676
v  0.0000 53.0928 -0.0000
v  28.4642 53.0928 -16.4338
v  31.7477 53.0928 -8.5068
v  32.8676 53.0928 -0.0000
v  31.7477 53.0928 8.5068
v  28.4642 53.0928 16.4338
v  23.2409 53.0928 23.2409
v  16.4338 53.0928 28.4642
v  8.5068 53.0928 31.7477
v  0.0000 53.0928 32.8676
v  -8.5068 53.0928 31.7477
v  -16.4338 53.0928 28.4642
v  -23.2409 53.0928 23.2409
v  -28.4642 53.0928 16.4338
v  -31.7477 53.0928 8.5068
v  -32.8676 53.0928 -0.0000
v  -31.7477 53.0928 -8.5068
v  -28.4642 53.0928 -16.4338
v  -23.2409 53.0928 -23.2409
v  -16.4338 53.0928 -28.4642
v  -8.5068 53.0928 -31.7477
v  -28.4642 55.1419 -16.4338
v  -31.7477 55.1419 -8.5068
v  -32.8676 55.1419 -0.0000
v  -31.7477 55.1419 8.5068
v  -28.4642 55.1419 16.4338
v  -23.2409 55.1419 23.2409
v  -16.4338 55.1419 28.4642
v  -8.5068 55.1419 31.7477
v  0.0000 55.1419 32.8676
v  8.5068 55.1419 31.7477
v  16.4338 55.1419 28.4642
v  23.2409 55.1419 23.2409
v  28.4642 55.1419 16.4338
v  31.7477 55.1419 8.5068
v  32.8676 55.1419 -0.0000
v  31.7477 55.1419 -8.5068
v  28.4642 55.1419 -16.4338
v  -8.5068 55.1419 -31.7477
v  -16.4338 55.1419 -28.4642
v  -23.2409 55.1419 -23.2409
# 143 vertices

vn 0.0000 0.0000 1.0000
vn 0.0000 0.0000 -1.0000
vn 1.0000 0.0000 -0.0000
vn -1.0000 0.0000 -0.0000
vn 0.0000 -1.0000 -0.0000
vn -0.8557 0.5174 -0.0000
vn -0.6624 0.7488 0.0227
vn -0.8454 0.5341 0.0015
vn -0.6510 0.7587 0.0238
vn 0.8553 0.5172 0.0313
vn 0.6628 0.7488 0.0015
vn 0.8449 0.5341 0.0294
vn 0.6512 0.7589 -0.0000
vn 0.8557 0.5174 -0.0000
vn 0.6624 0.7488 -0.0227
vn 0.8454 0.5341 -0.0015
vn 0.6510 0.7587 -0.0238
vn -0.8553 0.5172 -0.0313
vn -0.6628 0.7488 -0.0015
vn -0.8449 0.5341 -0.0294
vn -0.6512 0.7589 -0.0000
vn 0.0000 0.5174 0.8557
vn 0.0227 0.7488 0.6624
vn 0.0015 0.5341 0.8454
vn 0.0238 0.7587 0.6510
vn 0.0313 0.5172 -0.8553
vn 0.0015 0.7488 -0.6628
vn 0.0294 0.5341 -0.8449
vn 0.0000 0.7589 -0.6512
vn 0.0000 0.5174 -0.8557
vn -0.0227 0.7488 -0.6624
vn -0.0015 0.5341 -0.8454
vn -0.0238 0.7587 -0.6510
vn -0.0313 0.5172 0.8553
vn -0.0015 0.7488 0.6628
vn -0.0294 0.5341 0.8449
vn 0.0000 0.7589 0.6512
vn 0.0000 1.0000 -0.0000
vn -0.8829 0.0000 -0.4695
vn -0.4384 0.0000 -0.8988
vn 0.1736 0.0000 -0.9848
vn -0.9903 0.0000 0.1392
vn -0.7193 0.0000 0.6947
vn -0.1736 0.0000 0.9848
vn 0.4384 0.0000 0.8988
vn 0.8829 0.0000 0.4695
vn 0.9903 0.0000 -0.1392
vn 0.7193 0.0000 -0.6947
vn 0.7071 0.0000 -0.7071
vn 0.5000 0.0000 -0.8660
vn 0.2588 0.0000 -0.9659
vn 0.8660 0.0000 -0.5000
vn 0.9659 0.0000 -0.2588
vn 0.9659 0.0000 0.2588
vn 0.8660 0.0000 0.5000
vn 0.7071 0.0000 0.7071
vn 0.5000 0.0000 0.8660
vn -0.2588 0.0000 -0.9659
vn -0.5000 0.0000 -0.8660
vn -0.7071 0.0000 -0.7071
vn -0.8660 0.0000 -0.5000
vn -0.9659 0.0000 -0.2588
vn -0.9659 0.0000 0.2588
vn -0.8660 0.0000 0.5000
vn -0.7071 0.0000 0.7071
vn -0.5000 0.0000 0.8660
vn -0.2588 0.0000 0.9659
vn 0.2588 0.0000 0.9659
# 68 vertex normals

vt 0.7627 0.6836 0.0000
vt 0.7627 0.6649 0.0000
vt 0.7782 0.6743 0.0000
vt 0.7579 0.6528 0.0000
vt 0.7492 0.4156 0.0000
vt 0.7766 0.6528 0.0000
vt 0.7853 0.4156 0.0000
vt 0.7601 0.9454 0.0000
vt 0.7500 0.7082 0.0000
vt 0.7785 0.9454 0.0000
vt 0.7785 0.7082 0.0000
vt 0.8383 0.9811 0.0000
vt 0.8383 0.7438 0.0000
vt 0.8567 0.9811 0.0000
vt 0.8697 0.7438 0.0000
vt 0.9965 0.7126 0.0000
vt 0.9965 0.9957 0.0000
vt 0.9467 0.7126 0.0000
vt 0.8758 0.9957 0.0000
vt 0.2959 0.7299 0.0000
vt 0.3906 0.3763 0.0000
vt 0.4453 0.5804 0.0000
vt 0.4525 0.5257 0.0000
vt 0.4453 0.4710 0.0000
vt 0.4242 0.4200 0.0000
vt 0.4242 0.6314 0.0000
vt 0.3906 0.6752 0.0000
vt 0.3468 0.7088 0.0000
vt 0.1864 0.3215 0.0000
vt 0.0370 0.4710 0.0000
vt 0.0917 0.6752 0.0000
vt 0.1354 0.7088 0.0000
vt 0.1864 0.7299 0.0000
vt 0.2411 0.7371 0.0000
vt 0.0297 0.5257 0.0000
vt 0.0370 0.5804 0.0000
vt 0.0581 0.6314 0.0000
vt 0.1354 0.3427 0.0000
vt 0.0917 0.3763 0.0000
vt 0.0581 0.4200 0.0000
vt 0.3468 0.3427 0.0000
vt 0.2959 0.3215 0.0000
vt 0.2411 0.3143 0.0000
vt 0.7463 0.3396 0.0000
vt 0.7538 0.3183 0.0000
vt 0.7529 0.3613 0.0000
vt 0.8195 0.3412 0.0000
vt 0.7709 0.3750 0.0000
vt 0.7935 0.3755 0.0000
vt 0.8121 0.3625 0.0000
vt 0.8130 0.3195 0.0000
vt 0.7950 0.3058 0.0000
vt 0.7724 0.3053 0.0000
vt 0.5269 0.7321 0.0000
vt 0.5269 0.9307 0.0000
vt 0.5128 0.7321 0.0000
vt 0.5128 0.9307 0.0000
vt 0.4985 0.7321 0.0000
vt 0.4985 0.9307 0.0000
vt 0.4985 0.3655 0.0000
vt 0.5128 0.3655 0.0000
vt 0.5269 0.3655 0.0000
vt 0.5410 0.7321 0.0000
vt 0.5410 0.3655 0.0000
vt 0.5552 0.7321 0.0000
vt 0.5552 0.3655 0.0000
vt 0.5694 0.7321 0.0000
vt 0.5694 0.3655 0.0000
vt 0.5836 0.7321 0.0000
vt 0.5836 0.3655 0.0000
vt 0.5978 0.7321 0.0000
vt 0.5978 0.3655 0.0000
vt 0.6119 0.7321 0.0000
vt 0.6119 0.3655 0.0000
vt 0.6261 0.7321 0.0000
vt 0.6261 0.3655 0.0000
vt 0.5410 0.9307 0.0000
vt 0.5552 0.9307 0.0000
vt 0.5694 0.9307 0.0000
vt 0.5836 0.9307 0.0000
vt 0.5978 0.9307 0.0000
vt 0.6119 0.9307 0.0000
vt 0.6261 0.9307 0.0000
vt 0.6403 0.9307 0.0000
vt 0.6403 0.7321 0.0000
vt 0.6403 0.3655 0.0000
vt 0.8217 0.6369 0.0000
vt 0.7962 0.6369 0.0000
vt 0.8217 0.5602 0.0000
vt 0.7962 0.5602 0.0000
vt 0.8217 0.4835 0.0000
vt 0.7962 0.4835 0.0000
vt 0.8217 0.4068 0.0000
vt 0.7962 0.4068 0.0000
vt 0.2411 0.5257 0.0000
vt 0.6606 0.5096 0.0000
vt 0.6766 0.5096 0.0000
vt 0.6606 0.6293 0.0000
vt 0.6766 0.6293 0.0000
vt 0.6606 0.7507 0.0000
vt 0.6766 0.7507 0.0000
vt 0.6606 0.8700 0.0000
vt 0.6766 0.8700 0.0000
vt 0.6606 0.9897 0.0000
vt 0.6766 0.9918 0.0000
vt 0.6934 0.3923 0.0000
vt 0.7095 0.3902 0.0000
vt 0.6934 0.5119 0.0000
vt 0.7095 0.5119 0.0000
vt 0.6934 0.6319 0.0000
vt 0.7095 0.6319 0.0000
vt 0.6934 0.7525 0.0000
vt 0.7095 0.7525 0.0000
vt 0.6934 0.8687 0.0000
vt 0.7095 0.8687 0.0000
vt 0.6934 0.9888 0.0000
vt 0.7095 0.9909 0.0000
vt 0.6606 0.3916 0.0000
vt 0.6766 0.3895 0.0000
vt 0.6766 0.9919 0.0000
vt 0.6934 0.3921 0.0000
vt 0.7095 0.3900 0.0000
vt 0.6934 0.9879 0.0000
vt 0.7095 0.9900 0.0000
vt 0.6934 0.3926 0.0000
vt 0.7095 0.3904 0.0000
vt 0.6934 0.9881 0.0000
vt 0.7095 0.9902 0.0000
vt 0.7185 0.4134 0.0000
vt 0.7440 0.4134 0.0000
vt 0.7185 0.4901 0.0000
vt 0.7440 0.4901 0.0000
vt 0.7185 0.5668 0.0000
vt 0.7440 0.5668 0.0000
vt 0.7185 0.6435 0.0000
vt 0.7440 0.6435 0.0000
vt 0.7185 0.7202 0.0000
vt 0.7440 0.7202 0.0000
vt 0.7185 0.7969 0.0000
vt 0.7440 0.7969 0.0000
vt 0.7185 0.8736 0.0000
vt 0.7440 0.8736 0.0000
vt 0.7185 0.9503 0.0000
vt 0.7440 0.9503 0.0000
vt 0.7440 0.9813 0.0000
vt 0.7185 0.9813 0.0000
vt 0.7440 0.9046 0.0000
vt 0.7185 0.9046 0.0000
vt 0.7440 0.8279 0.0000
vt 0.7185 0.8279 0.0000
vt 0.7440 0.7512 0.0000
vt 0.7185 0.7512 0.0000
vt 0.7440 0.6745 0.0000
vt 0.7185 0.6745 0.0000
vt 0.7440 0.5978 0.0000
vt 0.7185 0.5978 0.0000
vt 0.7440 0.5212 0.0000
vt 0.7185 0.5212 0.0000
vt 0.7440 0.4445 0.0000
vt 0.7185 0.4445 0.0000
vt 0.8217 0.9964 0.0000
vt 0.7962 0.9964 0.0000
vt 0.8217 0.9197 0.0000
vt 0.7962 0.9197 0.0000
vt 0.8217 0.8430 0.0000
vt 0.7962 0.8430 0.0000
vt 0.8217 0.7663 0.0000
vt 0.7962 0.7663 0.0000
vt 0.8217 0.6896 0.0000
vt 0.7962 0.6896 0.0000
vt 0.8217 0.6129 0.0000
vt 0.7962 0.6129 0.0000
vt 0.8217 0.5362 0.0000
vt 0.7962 0.5362 0.0000
vt 0.8217 0.4595 0.0000
vt 0.7962 0.4595 0.0000
# 176 texture coords

g vault_round_table
usemtl _vault_round_table_vault_round_tableMaterial_000001
s 1
f 1/1/1 2/2/1 3/3/1 
f 4/1/2 5/2/2 6/3/2 
f 7/1/3 8/2/3 9/3/3 
f 10/1/4 11/2/4 12/3/4 
f 1/4/5 13/5/5 2/6/5 
f 13/5/5 14/7/5 2/6/5 
f 3/8/6 15/9/7 1/10/8 
f 15/9/7 13/11/9 1/10/8 
f 2/12/10 14/13/11 3/14/12 
f 14/13/11 15/15/13 3/14/12 
f 16/16/3 17/17/3 18/18/3 
f 17/17/3 19/19/3 18/18/3 
f 19/19/4 17/17/4 18/18/4 
f 17/17/4 16/16/4 18/18/4 
f 4/4/5 20/5/5 5/6/5 
f 20/5/5 21/7/5 5/6/5 
f 6/8/14 22/9/15 4/10/16 
f 22/9/15 20/11/17 4/10/16 
f 5/12/18 21/13/19 6/14/20 
f 21/13/19 22/15/21 6/14/20 
f 23/16/4 24/17/4 25/18/4 
f 24/17/4 26/19/4 25/18/4 
f 26/19/3 24/17/3 25/18/3 
f 24/17/3 23/16/3 25/18/3 
f 7/4/5 27/5/5 8/6/5 
f 27/5/5 28/7/5 8/6/5 
f 9/8/22 29/9/23 7/10/24 
f 29/9/23 27/11/25 7/10/24 
f 8/12/26 28/13/27 9/14/28 
f 28/13/27 29/15/29 9/14/28 
f 30/16/2 31/17/2 32/18/2 
f 31/17/2 33/19/2 32/18/2 
f 33/19/1 31/17/1 32/18/1 
f 31/17/1 30/16/1 32/18/1 
f 10/4/5 34/5/5 11/6/5 
f 34/5/5 35/7/5 11/6/5 
f 12/8/30 36/9/31 10/10/32 
f 36/9/31 34/11/33 10/10/32 
f 11/12/34 35/13/35 12/14/36 
f 35/13/35 36/15/37 12/14/36 
f 37/16/1 38/17/1 39/18/1 
f 38/17/1 40/19/1 39/18/1 
f 40/19/2 38/17/2 39/18/2 
f 38/17/2 37/16/2 39/18/2 
f 41/20/38 42/21/38 43/22/38 
f 44/23/38 43/22/38 45/24/38 
f 43/22/38 42/21/38 45/24/38 
f 45/24/38 42/21/38 46/25/38 
f 47/26/38 48/27/38 43/22/38 
f 43/22/38 48/27/38 41/20/38 
f 48/27/38 49/28/38 41/20/38 
f 50/29/38 42/21/38 51/30/38 
f 42/21/38 41/20/38 51/30/38 
f 51/30/38 41/20/38 52/31/38 
f 53/32/38 52/31/38 54/33/38 
f 52/31/38 41/20/38 54/33/38 
f 54/33/38 41/20/38 55/34/38 
f 56/35/38 51/30/38 57/36/38 
f 51/30/38 52/31/38 57/36/38 
f 57/36/38 52/31/38 58/37/38 
f 59/38/38 50/29/38 60/39/38 
f 50/29/38 51/30/38 60/39/38 
f 60/39/38 51/30/38 61/40/38 
f 62/41/38 42/21/38 63/42/38 
f 42/21/38 50/29/38 63/42/38 
f 63/42/38 50/29/38 64/43/38 
f 65/44/5 66/45/5 67/46/5 
f 66/45/5 68/47/5 67/46/5 
f 69/48/5 67/46/5 70/49/5 
f 67/46/5 68/47/5 70/49/5 
f 70/49/5 68/47/5 71/50/5 
f 72/51/5 68/47/5 73/52/5 
f 68/47/5 66/45/5 73/52/5 
f 73/52/5 66/45/5 74/53/5 
f 75/54/39 76/55/39 77/56/40 
f 76/55/39 78/57/40 77/56/40 
f 77/56/40 78/57/40 79/58/41 
f 78/57/40 80/59/41 79/58/41 
f 79/58/41 68/60/41 77/56/40 
f 68/60/41 72/61/40 77/56/40 
f 77/56/40 72/61/40 75/54/39 
f 72/61/40 73/62/39 75/54/39 
f 75/54/39 73/62/39 81/63/42 
f 73/62/39 74/64/42 81/63/42 
f 81/63/42 74/64/42 82/65/43 
f 74/64/42 66/66/43 82/65/43 
f 82/65/43 66/66/43 83/67/44 
f 66/66/43 65/68/44 83/67/44 
f 83/67/44 65/68/44 84/69/45 
f 65/68/44 67/70/45 84/69/45 
f 84/69/45 67/70/45 85/71/46 
f 67/70/45 69/72/46 85/71/46 
f 85/71/46 69/72/46 86/73/47 
f 69/72/46 70/74/47 86/73/47 
f 86/73/47 70/74/47 87/75/48 
f 70/74/47 71/76/48 87/75/48 
f 76/55/39 75/54/39 88/77/42 
f 75/54/39 81/63/42 88/77/42 
f 88/77/42 81/63/42 89/78/43 
f 81/63/42 82/65/43 89/78/43 
f 89/78/43 82/65/43 90/79/44 
f 82/65/43 83/67/44 90/79/44 
f 90/79/44 83/67/44 91/80/45 
f 83/67/44 84/69/45 91/80/45 
f 91/80/45 84/69/45 92/81/46 
f 84/69/45 85/71/46 92/81/46 
f 92/81/46 85/71/46 93/82/47 
f 85/71/46 86/73/47 93/82/47 
f 93/82/47 86/73/47 94/83/48 
f 86/73/47 87/75/48 94/83/48 
f 94/83/48 87/75/48 80/84/41 
f 80/84/41 87/75/48 79/85/41 
f 87/75/48 71/76/48 79/85/41 
f 71/76/48 68/86/41 79/85/41 
f 95/87/49 96/88/49 97/89/50 
f 96/88/49 98/90/50 97/89/50 
f 97/89/50 98/90/50 99/91/51 
f 98/90/50 100/92/51 99/91/51 
f 99/91/51 100/92/51 101/93/2 
f 100/92/51 102/94/2 101/93/2 
f 98/37/5 96/31/5 103/95/5 
f 96/31/5 104/32/5 103/95/5 
f 104/32/5 105/33/5 103/95/5 
f 105/33/5 106/34/5 103/95/5 
f 106/34/5 107/20/5 103/95/5 
f 103/95/5 107/20/5 108/28/5 
f 108/28/5 109/27/5 103/95/5 
f 109/27/5 110/26/5 103/95/5 
f 110/26/5 111/22/5 103/95/5 
f 111/22/5 112/23/5 103/95/5 
f 112/23/5 113/24/5 103/95/5 
f 113/24/5 114/25/5 103/95/5 
f 114/25/5 115/21/5 103/95/5 
f 115/21/5 116/41/5 103/95/5 
f 116/41/5 117/42/5 103/95/5 
f 117/42/5 118/43/5 103/95/5 
f 118/43/5 119/29/5 103/95/5 
f 119/29/5 120/38/5 103/95/5 
f 120/38/5 121/39/5 103/95/5 
f 121/39/5 122/40/5 103/95/5 
f 122/40/5 123/30/5 103/95/5 
f 123/30/5 102/35/5 103/95/5 
f 102/35/5 100/36/5 103/95/5 
f 103/95/5 100/36/5 98/37/5 
f 59/96/38 124/97/38 50/98/38 
f 124/97/38 125/99/38 50/98/38 
f 50/98/38 125/99/38 64/100/38 
f 125/99/38 126/101/38 64/100/38 
f 64/100/38 126/101/38 63/102/38 
f 126/101/38 127/103/38 63/102/38 
f 63/102/38 127/103/38 62/104/38 
f 127/103/38 128/105/38 62/104/38 
f 62/106/38 128/107/38 42/108/38 
f 128/107/38 129/109/38 42/108/38 
f 42/108/38 129/109/38 46/110/38 
f 129/109/38 130/111/38 46/110/38 
f 46/110/38 130/111/38 45/112/38 
f 130/111/38 131/113/38 45/112/38 
f 45/112/38 131/113/38 44/114/38 
f 131/113/38 132/115/38 44/114/38 
f 44/114/38 132/115/38 43/116/38 
f 132/115/38 133/117/38 43/116/38 
f 43/118/38 133/119/38 47/96/38 
f 133/119/38 134/97/38 47/96/38 
f 47/96/38 134/97/38 48/98/38 
f 134/97/38 135/99/38 48/98/38 
f 48/98/38 135/99/38 49/100/38 
f 135/99/38 136/101/38 49/100/38 
f 49/100/38 136/101/38 41/102/38 
f 136/101/38 137/103/38 41/102/38 
f 41/102/38 137/103/38 55/104/38 
f 137/103/38 138/120/38 55/104/38 
f 55/121/38 138/122/38 54/108/38 
f 138/122/38 139/109/38 54/108/38 
f 54/108/38 139/109/38 53/110/38 
f 139/109/38 140/111/38 53/110/38 
f 53/110/38 140/111/38 52/112/38 
f 140/111/38 95/113/38 52/112/38 
f 52/112/38 95/113/38 58/114/38 
f 95/113/38 97/115/38 58/114/38 
f 58/114/38 97/115/38 57/123/38 
f 97/115/38 99/124/38 57/123/38 
f 57/125/38 99/126/38 56/108/38 
f 99/126/38 101/109/38 56/108/38 
f 56/108/38 101/109/38 51/110/38 
f 101/109/38 141/111/38 51/110/38 
f 51/110/38 141/111/38 61/112/38 
f 141/111/38 142/113/38 61/112/38 
f 61/112/38 142/113/38 60/114/38 
f 142/113/38 143/115/38 60/114/38 
f 60/114/38 143/115/38 59/127/38 
f 143/115/38 124/128/38 59/127/38 
f 96/129/49 95/130/49 104/131/52 
f 95/130/49 140/132/52 104/131/52 
f 104/131/52 140/132/52 105/133/53 
f 140/132/52 139/134/53 105/133/53 
f 105/133/53 139/134/53 106/135/3 
f 139/134/53 138/136/3 106/135/3 
f 106/135/3 138/136/3 107/137/54 
f 138/136/3 137/138/54 107/137/54 
f 107/137/54 137/138/54 108/139/55 
f 137/138/54 136/140/55 108/139/55 
f 108/139/55 136/140/55 109/141/56 
f 136/140/55 135/142/56 109/141/56 
f 109/141/56 135/142/56 110/143/57 
f 135/142/56 134/144/57 110/143/57 
f 101/145/2 102/146/2 141/147/58 
f 102/146/2 123/148/58 141/147/58 
f 141/147/58 123/148/58 142/149/59 
f 123/148/58 122/150/59 142/149/59 
f 142/149/59 122/150/59 143/151/60 
f 122/150/59 121/152/60 143/151/60 
f 143/151/60 121/152/60 124/153/61 
f 121/152/60 120/154/61 124/153/61 
f 124/153/61 120/154/61 125/155/62 
f 120/154/61 119/156/62 125/155/62 
f 125/155/62 119/156/62 126/157/4 
f 119/156/62 118/158/4 126/157/4 
f 126/157/4 118/158/4 127/159/63 
f 118/158/4 117/160/63 127/159/63 
f 127/161/63 117/162/63 128/163/64 
f 117/162/63 116/164/64 128/163/64 
f 128/163/64 116/164/64 129/165/65 
f 116/164/64 115/166/65 129/165/65 
f 129/165/65 115/166/65 130/167/66 
f 115/166/65 114/168/66 130/167/66 
f 130/167/66 114/168/66 131/169/67 
f 114/168/66 113/170/67 131/169/67 
f 131/169/67 113/170/67 132/171/1 
f 113/170/67 112/172/1 132/171/1 
f 132/171/1 112/172/1 133/173/68 
f 112/172/1 111/174/68 133/173/68 
f 133/173/68 111/174/68 134/175/57 
f 111/174/68 110/176/57 134/175/57 
# 234 faces

